<svg id="Layer_1" data-name="Layer 1" xmlns="http://www.w3.org/2000/svg" xmlns:xlink="http://www.w3.org/1999/xlink" viewBox="0 0 500 500"><defs><style>.cls-1{fill:url(#linear-gradient);}.cls-2{fill:#fff;}</style><linearGradient id="linear-gradient" x1="540" y1="-290.11" x2="540" y2="209.89" gradientTransform="matrix(1, 0, 0, -1, -290, 209.89)" gradientUnits="userSpaceOnUse"><stop offset="0" stop-color="#19011f"/><stop offset="1" stop-color="#481353"/></linearGradient></defs><path class="cls-1" d="M0,479V21C3,10,10.06,3.06,21,0H479c11,3.05,18,10,21,21V479q-4.46,16.54-21,21H21Q4.48,495.52,0,479ZM272.5,213.39c11.43-1.51,22.08-3.25,32.79-4.25,9.86-.91,21.84-9.36,21-23-.39-6.46-1.47-12.87-2.26-19.3-2.69-22-5.2-43.93-8.18-65.85-1.39-10.26-6.21-18.79-17.31-20.61-6.21-1-12.81-.06-19.18.54-8.38.79-16.71,2.1-25.45,3.24.79,4.77,1.58,8.84,2.12,12.94q3.8,28.94,7.46,57.89c2.31,18,4.65,36,6.78,54,.19,1.59-.5,4.24-1.64,4.88-7.34,4.17-14.91,7.92-22.63,11.91l-4.42-7.88-20.07,10.27-4.27-7.45-22.38,11.61,3.61,7.79L179,250.31l3.71,8.18c-6.09,3.17-12,6.19-17.86,9.31-6.55,3.48-7.59,6.48-4.28,12.88l66,127.35c6.71,12.91,18.57,16.47,31.52,9.76,24.93-12.91,49.72-26.07,74.81-38.65,9.71-4.87,16.29-17.66,9.65-30.26-22.63-42.94-44.75-86.14-67-129.25C274.54,217.77,273.68,215.85,272.5,213.39ZM185,188.58l29.37,20.28c.87-2.36,2.14-5.46,3.17-8.65,3.35-10.37-1-23.49-10-29.55-4.82-3.24-9.84-6.19-14.88-9.08-12.81-7.36-27.22-12.62-34.79-27.06-3.84,16.63,1.65,29.71,15,40-7.14-.36-11.55-4.76-16.48-9.15.25,9.59,1.55,18.73,2.22,27.92,1,13.05,7.08,22.34,19.11,27.44,3.14,1.32,6.73,1.57,9.67,2.22-1.07-7.41-2-14-3.07-21.35l6.06,3.81C186.29,200,183.13,194.74,185,188.58Z" transform="translate(0 0)"/><path class="cls-2" d="M272.5,213.39c1.18,2.46,2,4.38,3,6.24,22.3,43.11,44.42,86.31,67,129.25,6.64,12.6.06,25.39-9.65,30.26C307.76,391.72,283,404.88,258,417.79c-13,6.71-24.81,3.15-31.52-9.76q-33.09-63.63-66-127.35c-3.31-6.4-2.27-9.4,4.28-12.88,5.86-3.12,11.77-6.14,17.86-9.31L179,250.31l19.48-10.2-3.61-7.79,22.38-11.61,4.27,7.45,20.07-10.27,4.42,7.88c7.72-4,15.29-7.74,22.63-11.91,1.14-.64,1.83-3.29,1.64-4.88-2.13-18-4.47-36-6.78-54Q259.79,126,256,97.09c-.54-4.1-1.33-8.17-2.12-12.94C262.66,83,271,81.7,279.37,80.91c6.37-.6,13-1.56,19.18-.54,11.1,1.82,15.92,10.35,17.31,20.61,3,21.92,5.49,43.9,8.18,65.85.79,6.43,1.87,12.84,2.26,19.3.82,13.61-11.16,22.06-21,23C294.58,210.14,283.93,211.88,272.5,213.39Z" transform="translate(0 0)"/><path class="cls-2" d="M185,188.58c-1.86,6.16,1.3,11.39,5.39,16.86l-6.06-3.81c1.06,7.39,2,13.94,3.07,21.35-2.94-.65-6.53-.9-9.67-2.22-12-5.1-18.15-14.39-19.11-27.44-.67-9.19-2-18.33-2.22-27.92,4.93,4.39,9.34,8.79,16.48,9.15-13.39-10.32-18.88-23.4-15-40,7.57,14.44,22,19.7,34.79,27.06,5,2.89,10.06,5.84,14.88,9.08,9,6.06,13.38,19.18,10,29.55-1,3.19-2.3,6.29-3.17,8.65Z" transform="translate(0 0)"/></svg>